<svg xmlns="http://www.w3.org/2000/svg" viewBox="0 0 103 107" role="img" aria-label="Canvas">
  <path d="M51.3621 88.1529C58.8652 88.1529 65.2135 93.7646 66.1277 101.223C56.434 103.727 46.2739 103.727 36.5974 101.223C37.5288 93.7647 43.8591 88.1531 51.3621 88.1529ZM77.2527 77.3453C82.5652 72.0449 90.9995 71.5266 96.9158 76.1363C91.8447 84.7518 84.6518 91.9346 76.0447 97.0279C71.4394 91.1059 71.9574 82.6631 77.2527 77.3453ZM5.87771 76.0846C11.8112 71.4748 20.2282 71.9931 25.5408 77.2936C30.8361 82.6113 31.3542 91.0541 26.7488 96.9762C18.1417 91.9001 10.9488 84.7 5.87771 76.0846ZM51.3797 74.8072C53.9497 74.8072 56.0368 76.9134 56.0369 79.486C56.0369 82.0585 53.9494 84.1481 51.3621 84.1481C48.7922 84.1479 46.7049 82.0581 46.7049 79.4684C46.7051 76.896 48.7925 74.8073 51.3797 74.8072ZM67.8347 67.9186C69.6631 66.1057 72.6128 66.1057 74.4412 67.9186C76.2692 69.7487 76.2694 72.7008 74.4412 74.5309C72.6128 76.361 69.6631 76.361 67.8347 74.5309C66.0065 72.7008 66.0066 69.7487 67.8347 67.9186ZM28.3357 67.8668C30.1641 66.0539 33.1128 66.0539 34.9412 67.8668C36.7695 69.697 36.7695 72.649 34.9412 74.4791C33.1129 76.3089 30.164 76.309 28.3357 74.4791C26.5074 72.649 26.5074 69.697 28.3357 67.8668ZM1.87575 36.6676C9.32715 37.5827 14.9334 43.9192 14.9334 51.4469C14.9334 58.9746 9.32716 65.3111 1.87575 66.2262C-0.62529 56.523 -0.625294 46.3535 1.87575 36.6676ZM101.073 36.6676C103.574 46.3708 103.574 56.5403 101.073 66.2262C93.6216 65.3111 88.0154 58.9746 88.0154 51.4469C88.0154 43.9364 93.6216 37.5827 101.073 36.6676ZM23.575 46.7682C26.1622 46.7682 28.2488 48.8571 28.2488 51.4469C28.2488 54.0367 26.1622 56.1256 23.575 56.1256C20.9877 56.1256 18.9002 54.0367 18.9002 51.4469C18.9002 48.8571 20.9877 46.7682 23.575 46.7682ZM79.322 46.7682C81.8921 46.7682 83.9792 48.8744 83.9793 51.4469C83.9793 54.0193 81.8926 56.1088 79.3054 56.109C76.7354 56.109 74.6482 54.0191 74.6482 51.4293C74.6484 48.857 76.735 46.7683 79.322 46.7682ZM28.3875 28.4322C30.2158 26.6195 33.1646 26.6196 34.9929 28.4322C36.8213 30.2624 36.8213 33.2144 34.9929 35.0445C33.1646 36.8745 30.2158 36.8746 28.3875 35.0445C26.5591 33.2144 26.5591 30.2624 28.3875 28.4322ZM67.8172 28.3981C69.6283 26.5852 72.5787 26.5679 74.407 28.3981C76.2176 30.2109 76.2349 33.1628 74.407 34.9928C72.5959 36.8229 69.6455 36.8229 67.8172 34.9928C66.0065 33.18 66.0066 30.2281 67.8172 28.3981ZM26.783 5.93517C31.4056 11.8744 30.8884 20.3 25.5759 25.6178C20.2634 30.9183 11.8282 31.4539 5.91189 26.8268C10.983 18.2113 18.1759 11.0112 26.783 5.93517ZM76.0105 5.88342C84.6176 10.9595 91.7933 18.142 96.8816 26.7574C90.9653 31.3846 82.5301 30.8665 77.2176 25.566C71.9225 20.2483 71.4052 11.8054 76.0105 5.88342ZM51.3797 18.9703C53.9497 18.9703 56.0369 21.0599 56.0369 23.6324C56.0368 26.2049 53.9321 28.2936 51.3621 28.2936C48.7922 28.2934 46.7049 26.2046 46.7049 23.6149C46.705 21.1229 48.6639 19.0846 51.1385 18.9596L51.3797 18.9703ZM36.615 1.87756C46.3086 -0.62586 56.468 -0.625844 66.1443 1.87756C65.2129 9.33623 58.8828 14.9479 51.3797 14.9479C43.8765 14.9478 37.5464 9.33621 36.615 1.87756Z" fill="#E72429"/>
</svg>
