<svg xmlns="http://www.w3.org/2000/svg" viewBox="-4 -4 70 70" role="img" aria-label="Pearson">
  <path d="M 42.276232,3.7858309 C 54.714779,10.777218 57.611024,26.451707 48.955648,42.312014 41.350062,56.252206 24.741785,62.206111 12.366029,55.110202 -0.0116891,48.010421 -2.4271887,28.207297 2.8924046,16.812419 10.615724,0.2630388 28.532805,-3.9410845 42.276232,3.7858309" fill="#007fa3"/>
  <path d="m 41.987785,15.811714 c 2.435122,2.56467 3.192541,6.455226 2.770662,9.647031 -0.484669,3.638928 -2.721606,7.006872 -6.440024,9.238619 -2.949224,1.773009 -6.82462,2.477567 -10.637224,2.512408 -0.0314,0.596165 -0.151091,2.649837 -0.21192,2.975018 -0.0883,0.478093 -0.259014,0.737463 -0.46701,1.004576 -0.410105,0.528419 -1.120431,0.867149 -1.826832,1.066516 -0.559234,0.154848 -1.114544,0.224529 -1.508951,0.224529 -0.06475,0 -0.129507,-0.0058 -0.194261,-0.01161 -0.414029,-0.04646 -0.875152,-0.240015 -1.159675,-0.551646 -0.284523,-0.315503 -0.445425,-0.710366 -0.482707,-1.159425 l -0.0314,-0.406476 c -0.08045,-0.348408 -0.521952,-18.03205 -0.437576,-17.716547 0.06475,-2.119482 3.532006,-2.487246 5.41378,-2.113675 1.885699,0.373571 1.408878,2.634351 1.35786,5.411937 0,0 -0.09026,3.652478 -0.2649,7.512064 2.401764,-0.09097 4.309047,-0.766497 6.09271,-1.639453 3.604608,-1.765267 5.511891,-4.469301 5.511891,-8.45083 0,-3.981529 -3.928375,-8.441151 -11.178799,-8.441151 -7.250423,0 -10.362512,1.803979 -13.872934,4.668667 -0.790777,0.64649 -1.401029,1.296852 -1.975961,1.724619 -0.576894,0.427768 -2.109392,0.493578 -2.517535,-0.509062 -0.4964431,-1.207815 0.427765,-2.554992 0.971302,-3.20729 0.853568,-1.023932 2.955111,-3.085346 5.286235,-4.283483 2.670589,-1.374276 5.935732,-2.85501 10.482209,-2.96921 4.112824,-0.100651 10.60779,0.226465 15.285736,5.439036 M 26.26251,45.0896 c -0.378709,-0.29034 -0.80255,-0.489707 -1.232278,-0.572937 -0.145204,-0.02904 -0.296296,-0.04452 -0.443463,-0.04452 -0.808436,0 -1.603138,0.439381 -2.121165,1.176845 -0.43169,0.611649 -0.610252,1.345241 -0.496443,2.053671 0.07456,0.454866 0.245278,0.847793 0.500367,1.140069 0.284523,0.329052 0.720137,0.582615 1.261711,0.735528 0.311994,0.08517 0.631837,0.13162 0.95168,0.13162 h 0.002 c 0.698552,0 1.326464,-0.209044 1.815058,-0.596164 0.567083,-0.458738 0.875153,-1.107164 0.869266,-1.833014 -0.0078,-0.841986 -0.419916,-1.664616 -1.106695,-2.191099" fill="#ffffff"/>
</svg>
